<svg xmlns="http://www.w3.org/2000/svg" viewBox="0 0 415.83 387.91"><title>air-jordan-logo</title><path d="M274,88.49a22,22,0,0,1-.33-2.61,22.27,22.27,0,1,1,23.78,20.67,20,20,0,0,1-2.3,0,2.42,2.42,0,0,0-1.22.57c-1.26,2,3.21,1.6.17,10.2a6.77,6.77,0,0,1-.36,1.89c-.24,3.3-1.51,13.09-1.69,18.3.65.76.83,1.12.76,3A124.21,124.21,0,0,1,291,152.93a6.58,6.58,0,0,1-3.23,4.78c-1.54,6.9-1.95,12.62-5.91,21-.36,6.36-.81,8.09-2.14,11.19-.15,9.36.5,10.75-5.82,25.57-1.63,6.93-.08,11.72,1.64,18.93,1.76,7.4,6.64,10.49,7.37,18.07,1.71,17.85,1.28,30-2.55,44l3.34,7.92c4.15,1.9,14.44,7.1,8.73,15.34,8,4.23,20.18,8.71,30.19,17.28a110,110,0,0,1,12.1,11.31c7.27,1.13,6.49,1.71,11.88,5,15.84,9.71,41.25,29,56,42.63,2.54,1.48,3.57,2.55,5.62,3.62.32.62.41.76.34.92-.71,1.78-.68,1.83-1.31,3.25a37.92,37.92,0,0,0,3.16,2.47c.83.26.83-.14,2.25-.49,1.85,1.73,4.14,3.12,5,3,2.51-.64,2.08-.12,4.2-2.49.76-.78,2,0,2,0a19.76,19.76,0,0,1,4.78-4.14c1.82-1.07,5.29-1.19,5.29-1.19,1.16,0,.94,1.2.84,1.59-1.31.68-4.1,1.42-5.66,2.57a46.63,46.63,0,0,0-6.07,8.27c6.85-.94,11.06.76,16.77.11,3.11-.18,5.41,0,8.68-2.35a37.55,37.55,0,0,1,6-3.42c2.74-1.19,5.33-.56,7.74,1.19,1.7,1.92,2.72,1.93.14,4.63-.93,1.05-2.29,2.23-4,3.93A135.41,135.41,0,0,1,447,427.76a69,69,0,0,1-12.13,7.7c-7.63,5.48-5.83,4-11.82,9.48-.76.68-2.77,1.89-3.74,2.53-2.37,1.55-3.1.26-4.65-2.59a38.07,38.07,0,0,1-1.87-3.33c-1.27-2.48-2.23-5.31-1.84-5.26-1.42-.18-7.82-7.68-7.83-9.29-1.35-.31-7.12-5.9-7.33-7l-5.11-4.1c-5.85,1.21-7.19-2.42-22.64-13.38-1.76,0-4.48-1-8.38-3.88-7-5.58-23.69-18.21-26.52-19.65-3-1.55-6.68-3-8.91-4.85-3.34-.62-5.17-1-6.84-1.43a42,42,0,0,0-7.59-1.65c-7-.87-14.34-3.79-21.29-7.27-3.29-1.56-6.16-2.36-9-3.57-6.36-2.68-11.8-5.1-16-6.08a52.58,52.58,0,0,1-13.29-4.8,17.54,17.54,0,0,0-3.11-1.61,6.85,6.85,0,0,0-4.41.67c-5.15,2.69-10,5-14.43,7.4-4.15,2.22-8,4.52-12,6.85-3.65,2.11-7.87,4.1-12.2,6.17,0,0-12.36,6.2-19.11,8.6a223.25,223.25,0,0,1-25.14,17.15c-3.62,1.72-10.65,6.18-13.89,7.17-1.85,1.49-8.44,6.19-13.6,10.07-4,3-7,5.5-7,5.5-2.32,2.08-2.16,3.06-6.56,1.19-1.22,1-2.17,1.63-3,2.21-3.18,2.31-3.45,1.75-4.61,1.69-2.22,1.92-2.5.93-4.44,3.13-1.27,2,0,1.5-2.66,2.46-.57.22-.84.9-1.27,1.28-2.16,1.78-2.17,6.8-7.34,7.16-3,2.14-2.23,4.71-4.52,4.6.14,2.22-4,5.45-4.8,5.44-6.59,2.28-7.05-2.57-15,1-1,.47-2.53,1.76-4.5,2.14-3.48.66-7.69,0-10.25-2-4-3.11-7.76-9.12-7.76-9.12-1.28-3-.54-5,3.47-7.82,1.67-1.06,2-1.86,4.78-2,1.39-.53,1,.28,3.5-.62,1.44-.52,1.44-.15,4.35-.4a12.77,12.77,0,0,1,2.85-1c2.3-.76,4.54-1.6,4.54-1.6s.59-.59,2.79-.38c1.87-.77,3.79-1.9,4.77-2.25-.25-3,.07-2.82,1.44-4,1.71-1.47,2-1.23,3.29-.32.54-.31.8-.42.74-.87-.21-1.54-1.53-2.27-1.13-5.67-.59-1.36-1.45-3-1.26-4.06s.55-1.62,1.21-2,.94.13,1.31.56a10.47,10.47,0,0,1,1.22,3.11c.24,2.63,1.05,6,3.65,4.11,1.53-1.55,1.83-5.69,5-4.8l2.23,1.94a14.12,14.12,0,0,1,3.11-2.49s-1.77-1.79-.22-3.18a33.32,33.32,0,0,0,4.62-4.15,127.45,127.45,0,0,1,16.23-15.53,153.36,153.36,0,0,1,38.61-22.75c3.18-4,6.28-6.72,13.34-7.4,8.39-14.17,24.46-26.83,28.16-28.85,3-5.44,4.31-4.86,8.23-6,3.11-2.49,3.82-2.49,5.21-5.1,1.35-5.38-3.12-19.75,8.3-20.48a54.5,54.5,0,0,1,4.53-5.85,49.22,49.22,0,0,1-3.08-11.55c-.09-.38-4.53-3.51-3.27-7.6a61.29,61.29,0,0,1-6.52-9.95,9.62,9.62,0,0,1-1.48-.26c-.58-.09-1.29-.06-2.1-.13-1.78,4.59-3.72,4.93-6.88,5.95-5.65,12-7.64,17.13-23.62,27.09a40.16,40.16,0,0,0-8.34,14.9c-1.09,2.35-.71,5.63-.13,7.39-.84,2.61-.62,2.86-.62,2.86a4.09,4.09,0,0,0,2.37,2.56c1.92.51,3.84.43,3.73,2.57-.26,2.68-3.77,2.24-5.43,1.94-6.4-1-4.37-5.18-8.46-3.79-3.13,2-4.31,8.1-9.42,7.31-.68-.45-.47-1.77,0-2.72.72-1.49,2-2.73,1.23-3.28-3.32,1-10,3.25-10,3.25-3.13.86-6.56-.71-3.48-2.77a29.58,29.58,0,0,0,6-2.87s1.3-1.77-1.19-.89a24.38,24.38,0,0,1-9.63,1.26s-6-.78-6.74-1.25-1.48-2.32.39-2.31a61.47,61.47,0,0,0,12.89-1.9c2.22-.86,6.43-3.36,8.8-4.53,0,0,2.57-3.74,4-4.48,2.36-2.72,4.35-4.32,6.43-7.09,2-4.21,4.15-10.87,10.9-21.18A98.22,98.22,0,0,1,185.7,262a25.38,25.38,0,0,1,7.62-13.56,103.22,103.22,0,0,1,5.63-10.79c.82-1.38,1.59-2.59,2.37-3.9,2-3.09,4-8.85,11.72-9.76a28.14,28.14,0,0,0,4.54-4.15c2-1.68,1.52-4.3,3.12-6.14-2.45-2.39-8.7-6.87-9.31-13.11a19.47,19.47,0,0,1,5.71-16.08c4.44-4.44,9.11-6.65,14.79-6.32,7.09,1.05,8.43,3.4,10.69,5.73s3,.79,3.89,3.37c5.95,1.58,5.62.89,5.57,5.26.91,1.23,2.45,2.38,2.43,4.93,2-4.15,2.4-4.91,7.74-9.48,1.26-3.71,2.12-7.36,3.23-11.07,1-3.43,2.33-7,3.34-9.62-1.06-7.5,1.12-8.74,4-15.31-.52-.9-.41-1.16-.19-2.65,1.13-4.35,2.9-10.09,4-13.84a2.14,2.14,0,0,1,1.89-1.6c1.33-4.74,3.33-13.58,3.67-15.38,1.37-5,.49-6.55-.57-9.35-.34-.91-.18-2.22-.77-3.23-1.66-2.89-3.45-6.65-4.66-9.34-.79-1.71-2-8.16-2-8.16-1.06-3.29-.13,0-.13,0" transform="translate(-48.09 -62.05)"/></svg>