<svg id="Layer_1" data-name="Layer 1" xmlns="http://www.w3.org/2000/svg" viewBox="0 0 122.88 109.57"><defs><style>.cls-1{fill-rule:evenodd;}</style></defs><title>delete-from-wishlist</title><path class="cls-1" d="M94.26,44.46A26.88,26.88,0,1,1,67.38,71.34,26.88,26.88,0,0,1,94.26,44.46ZM82.69,65.69a3.89,3.89,0,0,1-.86-1.29l0-.06a3.91,3.91,0,0,1-.29-1.45,4,4,0,0,1,.3-1.5,4.07,4.07,0,0,1,.85-1.29l0,0A3.92,3.92,0,0,1,84,59.22a4,4,0,0,1,1.52-.3,3.79,3.79,0,0,1,1.51.29l.07,0a4,4,0,0,1,1.21.82l5.62,5.62,5.61-5.61a3.87,3.87,0,0,1,1.28-.85,4,4,0,0,1,1.52-.31,4,4,0,0,1,1.5.3l.07,0A4.27,4.27,0,0,1,105,60l.12.11a3.89,3.89,0,0,1,.8,1.23,4,4,0,0,1,0,3l0,.07a4.14,4.14,0,0,1-.81,1.21l-5.62,5.62,5.6,5.61a3.92,3.92,0,0,1,1.16,2.8v.1a3.94,3.94,0,0,1-.29,1.4l0,.07a4,4,0,0,1-.81,1.21l0,0a4.09,4.09,0,0,1-1.28.85,3.86,3.86,0,0,1-1.52.31,3.94,3.94,0,0,1-1.5-.3,3.89,3.89,0,0,1-1.28-.84L93.9,76.9l-5.6,5.6a4.22,4.22,0,0,1-1.29.86l-.06,0a3.89,3.89,0,0,1-1.45.28,4,4,0,0,1-1.51-.3l-.07,0a4.14,4.14,0,0,1-1.21-.81l0,0a4.12,4.12,0,0,1-.86-1.28,4,4,0,0,1-.31-1.52,4,4,0,0,1,.3-1.5,3.92,3.92,0,0,1,.85-1.28l5.62-5.63-5.6-5.6ZM65.45,19.57l-4.52,4.74-4.52-4.43C49,12.58,43.4,7.08,31.89,6.93L30.46,7A25.75,25.75,0,0,0,13.74,13.6,22.58,22.58,0,0,0,6.63,30.17l0,1.37c.69,19.27,19.13,36.08,34.42,50,3,2.69,5.78,5.27,8.49,7.88l11.27,10.85,5.91-5.87c.68.8,1.39,1.58,2.13,2.32l0,0c.82.83,1.69,1.61,2.59,2.36l-10.59,10.5L45,94.22c-2.49-2.39-5.37-5-8.37-7.75C20.37,71.68.81,53.85,0,31.77l0-1.68A29.12,29.12,0,0,1,9.21,8.73a32.42,32.42,0,0,1,21-8.42H32c14,.18,20.45,6.34,28.8,14.55C67.66,7.54,73.39,1.55,85,.21a33.88,33.88,0,0,1,19,3.45,35.14,35.14,0,0,1,12.51,10.48,31.53,31.53,0,0,1,6.1,15.18,31,31,0,0,1-2.86,16.81l-.17-.18a36.18,36.18,0,0,0-5.14-4.27,24.26,24.26,0,0,0,1.57-11.6,25,25,0,0,0-4.83-12,28.62,28.62,0,0,0-10.14-8.5A27.27,27.27,0,0,0,85.79,6.82C76.47,7.89,71.5,13.17,65.45,19.57Z"/></svg>